<svg id="Capa_1" data-name="Capa 1" xmlns="http://www.w3.org/2000/svg" viewBox="0 0 150 150"><defs><style>.cls-1,.cls-2,.cls-3{fill:none;stroke-linecap:round;stroke-miterlimit:10;}.cls-1,.cls-2{stroke:#1d1d1b;}.cls-1{stroke-width:1.46px;}.cls-2{stroke-width:1.46px;}.cls-3{stroke:#000;}</style></defs><line class="cls-1" x1="62.13" y1="119.88" x2="92.13" y2="119.88"/><line class="cls-1" x1="62.13" y1="129" x2="92.13" y2="129"/><line class="cls-1" x1="62.13" y1="138.13" x2="92.13" y2="138.13"/><path class="cls-2" d="M65.2,38.34s4.16-.32,4.48-7c0,0,0-1.6-2.24-5.92,0,0-3.36-6.72,2.24-10.08"/><path class="cls-2" d="M74.8,38.34s4.16-.32,4.48-7c0,0,0-1.6-2.24-5.92,0,0-3.36-6.72,2.24-10.08"/><path class="cls-2" d="M84.56,38.34s4.16-.32,4.48-7c0,0,0-1.6-2.24-5.92,0,0-3.36-6.72,2.24-10.08"/><path class="cls-2" d="M118,96.09s.32-4.16,7-4.48c0,0,1.6,0,5.92,2.24,0,0,6.72,3.36,10.08-2.24"/><path class="cls-2" d="M118,86.49s.32-4.16,7-4.48c0,0,1.6,0,5.92,2.24,0,0,6.72,3.36,10.08-2.24"/><path class="cls-2" d="M118,76.73s.32-4.16,7-4.48c0,0,1.6,0,5.92,2.24,0,0,6.72,3.36,10.08-2.24"/><path class="cls-2" d="M27.6,84.5s4.86-3.14,0-5.57c-7.09-3.54-14,10-4.39,14.69s16.71-1.35,18.06-8.78S37.73,68,25.75,68s-25.49,15.86-12,32.4"/><path class="cls-3" d="M79.33,102.43c14.34.28,25.63,3.35,25.63,7.08H49.27c0-3.73,11.3-6.8,25.64-7.08"/><line class="cls-3" x1="79.33" y1="102.43" x2="79.33" y2="65.9"/><line class="cls-3" x1="74.91" y1="102.43" x2="74.91" y2="65.9"/><line class="cls-3" x1="79.33" y1="49.64" x2="74.91" y2="49.64"/><path class="cls-3" d="M79.33,65.9c19-.51,34.09-7.59,34.09-16.26H40.82c0,8.67,15.07,15.75,34.09,16.26"/></svg>